<svg width="40" height="40" viewBox="0 0 40 40" fill="none" xmlns="http://www.w3.org/2000/svg">
<g clip-path="url(#clip0_18_9)">
<path d="M39.0575 2.47625C39.0462 2.33625 39.0187 2.205 38.9762 2.0825L38.98 2.09375C38.9675 2.01125 38.95 1.94 38.9287 1.87L38.9312 1.88125C38.8912 1.81125 38.85 1.75125 38.805 1.695L38.8075 1.69875C38.7425 1.57875 38.6675 1.47375 38.5812 1.38125L38.5825 1.3825L38.5687 1.3625C38.5137 1.3225 38.4525 1.28375 38.3875 1.24875L38.38 1.245C38.29 1.1725 38.1887 1.10875 38.0812 1.0575L38.0725 1.05375C37.975 1.02125 37.8612 0.9975 37.7425 0.98625H37.7362C37.6687 0.96625 37.5887 0.94875 37.5075 0.93875L37.5 0.9375H28.6625C27.8 0.9375 27.1 1.6375 27.1 2.5C27.1 3.3625 27.8 4.0625 28.6625 4.0625H33.8887L20.6162 18.1962L12.2687 15.3412C12.1175 15.2875 11.9437 15.2562 11.7612 15.2562C11.13 15.2562 10.5862 15.6312 10.3412 16.1712L10.3375 16.1812L1.07375 36.8612C0.987499 37.0487 0.936249 37.2687 0.936249 37.5012C0.936249 38.3637 1.63625 39.0637 2.49875 39.0637C3.13 39.0637 3.67375 38.6887 3.92 38.15L3.92375 38.14L12.605 18.7587L20.5562 21.4787C20.7075 21.5325 20.8812 21.5637 21.0637 21.5637C21.5125 21.5637 21.9162 21.3737 22.2 21.0712L22.2012 21.07L35.935 6.4475V11.34C35.935 12.2025 36.635 12.9025 37.4975 12.9025C38.36 12.9025 39.06 12.2025 39.06 11.34V2.50125L39.0575 2.47625Z" fill="#0BFF88"/>
</g>
<defs>
<clipPath id="clip0_18_9">
<rect width="40" height="40" fill="white"/>
</clipPath>
</defs>
</svg>
