<svg width="55" height="55" viewBox="0 0 55 55" fill="none" xmlns="http://www.w3.org/2000/svg">
<path d="M52.7083 43.5417C52.7083 44.7572 52.2254 45.923 51.3659 46.7826C50.5063 47.6421 49.3405 48.125 48.125 48.125H6.87496C5.65938 48.125 4.4936 47.6421 3.63405 46.7826C2.77451 45.923 2.29163 44.7572 2.29163 43.5417V18.3333C2.29163 17.1178 2.77451 15.952 3.63405 15.0924C4.4936 14.2329 5.65938 13.75 6.87496 13.75H16.0416L20.625 6.875H34.375L38.9583 13.75H48.125C49.3405 13.75 50.5063 14.2329 51.3659 15.0924C52.2254 15.952 52.7083 17.1178 52.7083 18.3333V43.5417Z" stroke="#00FE8B" stroke-width="4" stroke-linecap="round" stroke-linejoin="round"/>
<path d="M27.5 38.9583C32.5626 38.9583 36.6666 34.8543 36.6666 29.7917C36.6666 24.7291 32.5626 20.625 27.5 20.625C22.4373 20.625 18.3333 24.7291 18.3333 29.7917C18.3333 34.8543 22.4373 38.9583 27.5 38.9583Z" stroke="#00FE8B" stroke-width="4" stroke-linecap="round" stroke-linejoin="round"/>
</svg>
