<svg width="50" height="50" viewBox="0 0 50 50" fill="none" xmlns="http://www.w3.org/2000/svg">
<path d="M7.29666 26.7242L5.5996 28.4213C4.37921 29.6417 4.37921 31.6203 5.5996 32.8407L17.0405 44.2816C18.2609 45.502 20.2395 45.502 21.4599 44.2816L23.157 42.5845C24.3773 41.3641 24.3773 39.3855 23.157 38.1651L11.7161 26.7242C10.4957 25.5038 8.51705 25.5038 7.29666 26.7242Z" fill="#00FE8B"/>
<path d="M42.7036 23.2757L44.4006 21.5786C45.621 20.3582 45.621 18.3796 44.4006 17.1592L32.9598 5.71831C31.7394 4.49792 29.7607 4.49792 28.5403 5.71831L26.8433 7.41537C25.6229 8.63576 25.6229 10.6144 26.8433 11.8348L38.2842 23.2757C39.5046 24.4961 41.4832 24.4961 42.7036 23.2757Z" fill="#00FE8B"/>
<path d="M45.5048 16.0545L44.5216 15.0714L44.8867 14.7064C46.707 12.8867 46.707 9.92437 44.8867 8.10312L41.2627 4.48062C39.4988 2.7175 36.4242 2.71437 34.6602 4.48062L34.2956 4.84531L34.0637 4.61343C32.2937 2.84421 29.2068 2.84265 27.4352 4.61343L25.7385 6.31093C24.8535 7.19593 24.3652 8.37312 24.3652 9.62515C24.3652 10.8772 24.8535 12.0544 25.7385 12.9394L28.4732 15.6741L15.6742 28.4731L12.8204 25.6194C10.9924 23.7914 8.01993 23.7914 6.19196 25.6194L4.49524 27.3161C2.66728 29.1441 2.66728 32.1173 4.49524 33.9453L5.47837 34.9284L5.11337 35.2934C3.29306 37.1131 3.29306 40.0755 5.11337 41.8967L8.73728 45.5192C9.61931 46.4012 10.7912 46.8872 12.0393 46.8872C13.286 46.8872 14.4579 46.4012 15.3398 45.5192L15.7045 45.1545L15.9363 45.3864C16.8213 46.2714 17.9977 46.7589 19.2506 46.7589C20.5018 46.7589 21.6798 46.2714 22.5648 45.3864L24.2615 43.6889C25.1465 42.8039 25.6348 41.6267 25.6348 40.3747C25.6348 39.1227 25.1465 37.9455 24.2615 37.0605L21.5268 34.3258L34.3259 21.5267L37.1796 24.3805C38.0937 25.2945 39.2929 25.7514 40.4938 25.7514C41.6948 25.7514 42.894 25.2944 43.8081 24.3805L45.5048 22.6837C47.3327 20.8558 47.3327 17.8825 45.5048 16.0545ZM36.8698 6.69015C37.4526 6.10421 38.4704 6.10578 39.0534 6.69015L42.6773 10.3127C43.2785 10.9147 43.2785 11.895 42.6773 12.4969L42.3123 12.8619L36.5051 7.05468L36.8698 6.69015ZM13.1302 43.3098C12.5459 43.895 11.5281 43.892 10.9467 43.3098L7.32274 39.6873C6.72149 39.0853 6.72149 38.105 7.32274 37.5031L7.68774 37.1381L13.4949 42.9453L13.1302 43.3098ZM22.5098 40.3748C22.5098 40.7922 22.3481 41.1844 22.052 41.4787L20.3552 43.1762C19.7662 43.7691 18.7348 43.7667 18.1457 43.177L6.70462 31.7359C6.09587 31.1264 6.09587 30.1353 6.70462 29.5256L8.40134 27.8289C8.70649 27.5245 9.10634 27.3719 9.50603 27.3719C9.90571 27.3719 10.3056 27.5245 10.6107 27.8289L22.0518 39.2708C22.3479 39.5653 22.5098 39.9576 22.5098 40.3748ZM19.3173 32.1164L17.8837 30.6828L30.6827 17.8837L32.1163 19.3173L19.3173 32.1164ZM43.2952 20.4744L41.5985 22.1711C40.9882 22.7798 39.9995 22.7798 39.389 22.1711L27.9479 10.7292C27.6518 10.4347 27.4901 10.0425 27.4901 9.62531C27.4901 9.20812 27.6518 8.81578 27.9479 8.5214L29.6446 6.8239C29.9391 6.52859 30.3327 6.36609 30.7493 6.36609C31.1674 6.36609 31.5596 6.52781 31.854 6.82312L43.2951 18.2642C43.9038 18.8737 43.904 19.8647 43.2952 20.4744Z" fill="#00FE8B"/>
</svg>
