<svg width="50" height="50" viewBox="0 0 50 50" fill="none" xmlns="http://www.w3.org/2000/svg">
<path fill-rule="evenodd" clip-rule="evenodd" d="M24.2921 0L26.2935 2.50183C28.6637 5.46471 29.5373 8.38815 29.4562 11.1929C29.3775 13.92 28.399 16.3512 27.4219 18.3578C27.0935 19.032 26.7388 19.7093 26.4137 20.3297C26.2631 20.6174 26.1187 20.8928 25.9865 21.1501C25.5446 22.0095 25.2069 22.7207 24.9923 23.3447C24.7767 23.9712 24.7367 24.3674 24.7642 24.6178C24.7848 24.8068 24.8483 24.997 25.0981 25.2468C25.5112 25.6599 25.816 25.776 26.0008 25.8114C26.1896 25.8478 26.4406 25.836 26.7998 25.6885C27.6031 25.358 28.584 24.4978 29.6131 23.2074C30.6017 21.9678 31.4648 20.5499 32.0904 19.4153C32.4 18.8537 32.6448 18.3738 32.8106 18.0373C32.8933 17.8692 32.9562 17.7376 32.9975 17.6501L33.0427 17.5532L33.0525 17.5316L33.054 17.5287L34.2744 14.8276L36.4025 16.8909C41.2208 21.5624 42.7119 28.308 39.5448 34.4322C36.7906 39.758 31.1506 43.3866 24.6667 43.3866C15.5104 43.3866 8 36.1307 8 27.0735C8 22.3018 10.6393 18.8874 13.514 15.5306C13.889 15.0927 14.2723 14.6514 14.6616 14.2031C17.3309 11.1297 20.2844 7.72902 22.8171 2.84429L24.2921 0ZM35.3477 22.1207C34.6975 23.2451 33.8519 24.5751 32.8706 25.8053C31.719 27.2495 30.1933 28.798 28.3846 29.542C27.4375 29.9314 26.356 30.123 25.2133 29.903C24.0665 29.6822 23.0408 29.082 22.1519 28.193C21.2535 27.2947 20.7492 26.2332 20.6221 25.0703C20.5017 23.9687 20.7346 22.9122 21.0523 21.9887C21.371 21.0628 21.8275 20.1268 22.281 19.2449C22.4431 18.9295 22.6031 18.6241 22.7617 18.3217C23.0704 17.7328 23.3733 17.1546 23.6756 16.5337C24.5748 14.6873 25.2385 12.9014 25.2912 11.0726C25.3196 10.0917 25.1733 9.04177 24.7235 7.91325C22.3977 11.6594 19.9003 14.5306 17.7867 16.9606C17.4037 17.401 17.0332 17.8269 16.6787 18.2409C13.7808 21.6247 12.1667 23.986 12.1667 27.0735C12.1667 33.7339 17.7146 39.2199 24.6667 39.2199C29.5715 39.2199 33.7954 36.4795 35.8437 32.5182C37.639 29.0468 37.3852 25.288 35.3477 22.1207Z" fill="#00FE8B"/>
</svg>
