<svg width="25" height="25" viewBox="0 0 25 25" fill="none" xmlns="http://www.w3.org/2000/svg">
<path fill-rule="evenodd" clip-rule="evenodd" d="M9.59006 3.31449C9.32742 3.3977 9.06805 3.49226 8.81268 3.59803C7.64366 4.08226 6.58145 4.792 5.68672 5.68673C4.79199 6.58146 4.08226 7.64367 3.59803 8.81269C3.21374 9.74044 2.97746 10.721 2.8963 11.7188H7.56347C7.59681 10.5772 7.7031 9.45219 7.87976 8.38601C8.09635 7.07873 8.41637 5.8741 8.82835 4.84416C9.05327 4.28184 9.30739 3.76709 9.59006 3.31449ZM12.5 1.30208C11.0295 1.30208 9.57333 1.59173 8.21473 2.15447C6.85614 2.71722 5.62169 3.54205 4.58187 4.58188C3.54205 5.6217 2.71721 6.85615 2.15447 8.21474C1.59172 9.57333 1.30208 11.0295 1.30208 12.5C1.30208 13.9705 1.59172 15.4267 2.15446 16.7852C2.71721 18.1439 3.54205 19.3783 4.58187 20.4181C5.62169 21.4579 6.85614 22.2828 8.21473 22.8455C9.57333 23.4082 11.0295 23.6979 12.5 23.6979C13.9705 23.6979 15.4267 23.4082 16.7852 22.8455C18.1438 22.2828 19.3783 21.4579 20.4181 20.4181C21.4579 19.3783 22.2828 18.1439 22.8455 16.7852C23.4082 15.4267 23.6979 13.9705 23.6979 12.5C23.6979 11.0295 23.4082 9.57333 22.8455 8.21474C22.2828 6.85615 21.4579 5.6217 20.4181 4.58188C19.3783 3.54205 18.1438 2.71722 16.7852 2.15448C15.4267 1.59173 13.9705 1.30208 12.5 1.30208ZM12.5 2.86458C12.2278 2.86458 11.8762 2.99562 11.4675 3.41896C11.0556 3.84543 10.6433 4.51381 10.2791 5.42445C9.91724 6.32905 9.62343 7.42108 9.42123 8.64142C9.25902 9.62051 9.15954 10.6595 9.12668 11.7188H15.8733C15.8404 10.6595 15.7409 9.62051 15.5787 8.64142C15.3766 7.42108 15.0827 6.32906 14.7209 5.42446C14.3567 4.51381 13.9444 3.84543 13.5325 3.41896C13.1237 2.99562 12.7722 2.86458 12.5 2.86458ZM17.4366 11.7188C17.4032 10.5772 17.2969 9.4522 17.1202 8.38601C16.9036 7.07873 16.5836 5.8741 16.1717 4.84416C15.9468 4.28184 15.6926 3.76709 15.4099 3.31449C15.6726 3.3977 15.932 3.49226 16.1873 3.59803C17.3563 4.08226 18.4185 4.792 19.3132 5.68673C20.208 6.58147 20.9177 7.64367 21.402 8.81269C21.7862 9.74044 22.0225 10.721 22.1036 11.7188H17.4366ZM15.8733 13.2812H9.12668C9.15954 14.3405 9.25902 15.3795 9.42123 16.3585C9.62343 17.579 9.91724 18.6709 10.2791 19.5755C10.6433 20.4861 11.0556 21.1546 11.4675 21.581C11.8762 22.0044 12.2278 22.1354 12.5 22.1354C12.7722 22.1354 13.1237 22.0044 13.5325 21.581C13.9444 21.1546 14.3567 20.4861 14.7209 19.5755C15.0827 18.6709 15.3766 17.579 15.5787 16.3585C15.7409 15.3795 15.8404 14.3405 15.8733 13.2812ZM15.4099 21.6855C15.6926 21.2329 15.9468 20.7181 16.1717 20.1558C16.5836 19.1259 16.9036 17.9212 17.1202 16.614C17.2969 15.5478 17.4032 14.4228 17.4366 13.2812H22.1036C22.0225 14.279 21.7862 15.2596 21.402 16.1873C20.9177 17.3564 20.208 18.4185 19.3132 19.3132C18.4185 20.208 17.3563 20.9177 16.1873 21.402C15.932 21.5077 15.6726 21.6023 15.4099 21.6855ZM9.59006 21.6855C9.30739 21.2329 9.05327 20.7181 8.82834 20.1558C8.41636 19.1259 8.09635 17.9212 7.87976 16.614C7.7031 15.5478 7.59681 14.4228 7.56347 13.2812H2.8963C2.97746 14.279 3.21374 15.2596 3.59803 16.1873C4.08226 17.3564 4.79199 18.4185 5.68672 19.3132C6.58145 20.208 7.64366 20.9177 8.81268 21.402C9.06805 21.5077 9.32742 21.6023 9.59006 21.6855Z" fill="white"/>
</svg>
