<svg width="50" height="50" viewBox="0 0 50 50" fill="none" xmlns="http://www.w3.org/2000/svg">
<g clip-path="url(#clip0_78_78)">
<path d="M34.375 41.5469L30.3281 37.5L28.125 39.7031L34.375 45.9531L46.875 33.4531L44.6719 31.25L34.375 41.5469Z" fill="#00FE8B"/>
<path d="M25 28.125C26.7259 28.125 28.125 26.7259 28.125 25C28.125 23.2741 26.7259 21.875 25 21.875C23.2741 21.875 21.875 23.2741 21.875 25C21.875 26.7259 23.2741 28.125 25 28.125Z" fill="#00FE8B"/>
<path d="M25 34.375C23.1458 34.375 21.3332 33.8252 19.7915 32.795C18.2498 31.7649 17.0482 30.3007 16.3386 28.5877C15.6291 26.8746 15.4434 24.9896 15.8051 23.171C16.1669 21.3525 17.0598 19.682 18.3709 18.3709C19.682 17.0598 21.3525 16.1669 23.171 15.8051C24.9896 15.4434 26.8746 15.6291 28.5877 16.3386C30.3007 17.0482 31.7649 18.2498 32.795 19.7915C33.8252 21.3332 34.375 23.1458 34.375 25C34.3723 27.4856 33.3837 29.8686 31.6261 31.6261C29.8686 33.3837 27.4856 34.3723 25 34.375ZM25 18.75C23.7639 18.75 22.5555 19.1166 21.5277 19.8033C20.4999 20.4901 19.6988 21.4662 19.2258 22.6082C18.7527 23.7503 18.6289 25.0069 18.8701 26.2193C19.1113 27.4317 19.7065 28.5453 20.5806 29.4194C21.4547 30.2935 22.5683 30.8888 23.7807 31.1299C24.9931 31.3711 26.2497 31.2473 27.3918 30.7743C28.5338 30.3012 29.5099 29.5001 30.1967 28.4723C30.8834 27.4445 31.25 26.2361 31.25 25C31.2481 23.343 30.5891 21.7543 29.4174 20.5826C28.2457 19.4109 26.657 18.7519 25 18.75Z" fill="#00FE8B"/>
<path d="M43.75 25C43.75 21.2916 42.6503 17.6665 40.5901 14.5831C38.5298 11.4996 35.6014 9.09641 32.1753 7.67727C28.7492 6.25812 24.9792 5.88681 21.3421 6.61028C17.7049 7.33376 14.364 9.11952 11.7418 11.7418C9.11952 14.364 7.33376 17.7049 6.61028 21.3421C5.88681 24.9792 6.25812 28.7492 7.67727 32.1753C9.09641 35.6014 11.4996 38.5298 14.5831 40.5901C17.6665 42.6503 21.2916 43.75 25 43.75V40.625C21.9097 40.625 18.8887 39.7086 16.3192 37.9917C13.7497 36.2748 11.747 33.8345 10.5644 30.9794C9.38177 28.1243 9.07234 24.9827 9.67524 21.9517C10.2781 18.9208 11.7663 16.1367 13.9515 13.9515C16.1367 11.7663 18.9208 10.2781 21.9517 9.67524C24.9827 9.07234 28.1243 9.38177 30.9794 10.5644C33.8345 11.747 36.2748 13.7497 37.9917 16.3192C39.7086 18.8887 40.625 21.9097 40.625 25H43.75Z" fill="#00FE8B"/>
</g>
<defs>
<clipPath id="clip0_78_78">
<rect width="50" height="50" fill="white"/>
</clipPath>
</defs>
</svg>
