<svg width="52" height="40" viewBox="0 0 52 40" fill="none" xmlns="http://www.w3.org/2000/svg">
<path d="M23.1111 40C23.0208 40 23.0208 40 22.9306 40C22.0278 39.8977 21.3056 39.0795 21.2153 38.0568L18.9583 12.5907L16.9722 19.5453C16.7014 20.4658 15.9792 20.9772 15.1667 20.9772H1.89583C0.8125 20.9772 0 20.0567 0 18.9317C0 17.8067 0.8125 16.7839 1.89583 16.7839H13.9028L18.2361 1.44294C18.5069 0.52248 19.3194 -0.0911617 20.2222 0.0111117C21.125 0.113385 21.7569 0.931573 21.8472 1.95431L24.0139 26.8067L28.6181 9.01117C28.8889 8.09071 29.5208 7.47707 30.4236 7.47707C31.2361 7.47707 31.9583 8.19298 32.2292 9.11344L34.7569 21.4885L36.6528 18.318C37.0139 17.7044 37.5556 17.3976 38.1875 17.3976H50.1042C51.0972 17.3976 52 18.318 52 19.5453C52 20.6703 51.1875 21.6931 50.1042 21.6931H39.1806L35.4792 27.9317C35.0278 28.6477 34.3056 28.9545 33.5833 28.8522C32.8611 28.7499 32.2292 28.034 32.1389 27.2158L30.2431 18.0112L24.9167 38.6704C24.6458 39.3864 23.9236 40 23.1111 40Z" fill="#0BFF88"/>
</svg>
