<svg width="70" height="70" viewBox="0 0 70 70" fill="none" xmlns="http://www.w3.org/2000/svg">
<rect width="70" height="70" rx="25" fill="#252626"/>
<path d="M38.2562 17.5275L35.4362 32.3475L45.6537 32.3812L31.745 52.4712L34.5662 36.1675L24.3487 36.1312L38.2562 17.5275ZM38.2575 15.0287C38.19 15.0287 38.1225 15.0312 38.0562 15.0362C37.615 15.0712 37.3225 15.22 36.9762 15.4525C36.7837 15.58 36.6075 15.7375 36.4525 15.9187C36.4062 15.9725 36.3637 16.0287 36.3237 16.0862L22.315 34.6262C21.7625 35.385 21.68 36.385 22.105 37.2212C22.53 38.0575 23.3875 38.5875 24.3287 38.595L31.545 38.6475L29.2762 52.015C29.0612 53.1637 29.6737 54.3087 30.7512 54.77C31.0725 54.9075 31.41 54.9737 31.7425 54.9737C32.5287 54.9737 33.1737 54.6062 33.6587 53.9425L47.6837 33.8525C48.2362 33.0937 48.3175 32.0925 47.8937 31.2575C47.4687 30.4212 46.6112 29.8912 45.67 29.885L38.4537 29.8725L40.6987 18.12C40.7462 17.9312 40.77 17.735 40.77 17.5325C40.77 16.18 39.6937 15.0775 38.3462 15.0337C38.3162 15.0325 38.2875 15.0325 38.2575 15.0325V15.0287Z" fill="white" fill-opacity="0.3"/>
</svg>
