<svg width="70" height="70" viewBox="0 0 70 70" fill="none" xmlns="http://www.w3.org/2000/svg">
<rect width="70" height="70" rx="25" fill="#252626"/>
<g clip-path="url(#clip0_33_98)">
<path d="M42.5 46.2375L39.2625 43L37.5 44.7625L42.5 49.7625L52.5 39.7625L50.7375 38L42.5 46.2375Z" fill="white" fill-opacity="0.3"/>
<path d="M35 35.5C36.3807 35.5 37.5 34.3807 37.5 33C37.5 31.6193 36.3807 30.5 35 30.5C33.6193 30.5 32.5 31.6193 32.5 33C32.5 34.3807 33.6193 35.5 35 35.5Z" fill="white" fill-opacity="0.3"/>
<path d="M35 40.5C33.5166 40.5 32.0666 40.0601 30.8332 39.236C29.5999 38.4119 28.6386 37.2406 28.0709 35.8701C27.5032 34.4997 27.3547 32.9917 27.6441 31.5368C27.9335 30.082 28.6478 28.7456 29.6967 27.6967C30.7456 26.6478 32.082 25.9335 33.5368 25.6441C34.9917 25.3547 36.4997 25.5032 37.8701 26.0709C39.2406 26.6386 40.4119 27.5999 41.236 28.8332C42.0601 30.0666 42.5 31.5166 42.5 33C42.4978 34.9885 41.7069 36.8948 40.3009 38.3009C38.8948 39.7069 36.9885 40.4978 35 40.5ZM35 28C34.0111 28 33.0444 28.2932 32.2222 28.8427C31.3999 29.3921 30.759 30.173 30.3806 31.0866C30.0022 32.0002 29.9032 33.0055 30.0961 33.9755C30.289 34.9454 30.7652 35.8363 31.4645 36.5355C32.1637 37.2348 33.0546 37.711 34.0246 37.9039C34.9945 38.0969 35.9998 37.9978 36.9134 37.6194C37.8271 37.241 38.6079 36.6001 39.1574 35.7779C39.7068 34.9556 40 33.9889 40 33C39.9985 31.6744 39.4713 30.4035 38.5339 29.4661C37.5965 28.5288 36.3256 28.0015 35 28Z" fill="white" fill-opacity="0.3"/>
<path d="M50 33C50 30.0333 49.1203 27.1332 47.472 24.6665C45.8238 22.1997 43.4811 20.2771 40.7403 19.1418C37.9994 18.0065 34.9834 17.7094 32.0737 18.2882C29.1639 18.867 26.4912 20.2956 24.3934 22.3934C22.2956 24.4912 20.867 27.1639 20.2882 30.0737C19.7094 32.9834 20.0065 35.9994 21.1418 38.7403C22.2771 41.4811 24.1997 43.8238 26.6665 45.472C29.1332 47.1203 32.0333 48 35 48V45.5C32.5277 45.5 30.111 44.7669 28.0554 43.3934C25.9998 42.0199 24.3976 40.0676 23.4515 37.7836C22.5054 35.4995 22.2579 32.9861 22.7402 30.5614C23.2225 28.1366 24.413 25.9093 26.1612 24.1612C27.9093 22.413 30.1366 21.2225 32.5614 20.7402C34.9861 20.2579 37.4995 20.5054 39.7836 21.4515C42.0676 22.3976 44.0199 23.9998 45.3934 26.0554C46.7669 28.111 47.5 30.5277 47.5 33H50Z" fill="white" fill-opacity="0.3"/>
</g>
<defs>
<clipPath id="clip0_33_98">
<rect width="40" height="40" fill="white" transform="translate(15 13)"/>
</clipPath>
</defs>
</svg>
